<svg xmlns="http://www.w3.org/2000/svg" viewBox="0 0 1200 680" width="1200" height="680">
  <style>text{font-family:-apple-system,BlinkMacSystemFont,"Segoe UI","PingFang SC","Microsoft YaHei",sans-serif}</style>
  <defs>
    <marker id="ar" markerWidth="9" markerHeight="9" refX="8" refY="4.5" orient="auto"><polygon points="0 0,9 4.5,0 9" fill="#5a5a5a"/></marker>
    <filter id="sh"><feDropShadow dx="0" dy="2" stdDeviation="5" flood-color="#00000010"/></filter>
  </defs>
  <rect width="1200" height="680" fill="#f8f6f3"/>
  <text x="600" y="38" text-anchor="middle" fill="#1a1a1a" font-size="20" font-weight="700">engineer_demo · 系统架构（D1 记忆四层归属 + Benchmark 评测）</text>
  <rect x="340" y="68" width="520" height="88" rx="12" fill="#f4e4c1" stroke="#4a4a4a" stroke-width="2.5" filter="url(#sh)"/>
  <text x="600" y="96" text-anchor="middle" fill="#1a1a1a" font-size="16" font-weight="600">Benchmark 评测层（eval/）</text>
  <text x="600" y="120" text-anchor="middle" fill="#3a3a3a" font-size="13">一个 harness 测 code / doc / memory + agent A/B（有 vs 无 KB）</text>
  <text x="600" y="140" text-anchor="middle" fill="#6a6a6a" font-size="12">归档留底 · lockfile 复现 · 金句零 LLM judge</text>
  <line x1="600" y1="156" x2="600" y2="196" stroke="#5a5a5a" stroke-width="2" marker-end="url(#ar)"/>
  <polygon points="600,196 812,256 600,316 388,256" fill="#a8c5e6" stroke="#4a4a4a" stroke-width="2.5" filter="url(#sh)"/>
  <text x="600" y="250" text-anchor="middle" fill="#1a1a1a" font-size="16" font-weight="700">D1 判定金句</text>
  <text x="600" y="272" text-anchor="middle" fill="#3a3a3a" font-size="12">候选事实路由</text>
  <text x="600" y="346" text-anchor="middle" fill="#5a5a5a" font-size="13" font-style="italic">「忘了这条，agent 会不会被纠正？」</text>
  <line x1="600" y1="316" x2="190" y2="440" stroke="#5a5a5a" stroke-width="2" marker-end="url(#ar)"/>
  <rect x="343" y="366" width="104" height="20" rx="6" fill="#f8f6f3" stroke="#bbbbbb" stroke-width="1"/>
  <text x="395" y="381" text-anchor="middle" fill="#3a3a3a" font-size="12">会纠正 → Memory</text>
  <line x1="600" y1="316" x2="470" y2="440" stroke="#5a5a5a" stroke-width="2" marker-end="url(#ar)"/>
  <rect x="483" y="366" width="104" height="20" rx="6" fill="#f8f6f3" stroke="#bbbbbb" stroke-width="1"/>
  <text x="535" y="381" text-anchor="middle" fill="#3a3a3a" font-size="12">被问起 → KB</text>
  <line x1="600" y1="316" x2="750" y2="440" stroke="#5a5a5a" stroke-width="2" marker-end="url(#ar)"/>
  <rect x="623" y="366" width="104" height="20" rx="6" fill="#f8f6f3" stroke="#bbbbbb" stroke-width="1"/>
  <text x="675" y="381" text-anchor="middle" fill="#3a3a3a" font-size="12">怎么做 → Skill</text>
  <line x1="600" y1="316" x2="1030" y2="440" stroke="#5a5a5a" stroke-width="2" marker-end="url(#ar)"/>
  <rect x="763" y="366" width="104" height="20" rx="6" fill="#f8f6f3" stroke="#bbbbbb" stroke-width="1"/>
  <text x="815" y="381" text-anchor="middle" fill="#3a3a3a" font-size="12">何时 → git</text>
  <rect x="70" y="440" width="240" height="180" rx="12" fill="#e8e6e3" stroke="#4a4a4a" stroke-width="2.5" filter="url(#sh)"/>
  <text x="190" y="470" text-anchor="middle" fill="#1a1a1a" font-size="15" font-weight="600">Memory · 主观层</text>
  <text x="190" y="498" text-anchor="middle" fill="#1a1a1a" font-size="14" font-weight="600">MemPalace</text>
  <text x="190" y="522" text-anchor="middle" fill="#3a3a3a" font-size="12">• 用户偏好 / 决策</text>
  <text x="190" y="542" text-anchor="middle" fill="#3a3a3a" font-size="12">• 工作方式（type 四类）</text>
  <text x="190" y="562" text-anchor="middle" fill="#3a3a3a" font-size="12">• hit@5=0.933 · 路由 1.0</text>
  <text x="190" y="588" text-anchor="middle" fill="#6a6a6a" font-size="11" font-style="italic">召回：会→Memory</text>
  <rect x="350" y="440" width="240" height="180" rx="12" fill="#e8e6e3" stroke="#4a4a4a" stroke-width="2.5" filter="url(#sh)"/>
  <text x="470" y="470" text-anchor="middle" fill="#1a1a1a" font-size="15" font-weight="600">KB · 客观层</text>
  <text x="470" y="498" text-anchor="middle" fill="#1a1a1a" font-size="14" font-weight="600">cmm + graphify</text>
  <text x="470" y="522" text-anchor="middle" fill="#3a3a3a" font-size="12">• cmm：代码符号/调用图</text>
  <text x="470" y="542" text-anchor="middle" fill="#3a3a3a" font-size="12">• graphify：文档图</text>
  <text x="470" y="562" text-anchor="middle" fill="#3a3a3a" font-size="12">• broad@5=0.846 · cross 100%</text>
  <text x="470" y="588" text-anchor="middle" fill="#6a6a6a" font-size="11" font-style="italic">查：被问起→KB</text>
  <rect x="630" y="440" width="240" height="180" rx="12" fill="#9dd4c7" stroke="#4a4a4a" stroke-width="2.5" filter="url(#sh)"/>
  <text x="750" y="470" text-anchor="middle" fill="#1a1a1a" font-size="15" font-weight="600">Skills · 程序层</text>
  <text x="750" y="498" text-anchor="middle" fill="#1a1a1a" font-size="14" font-weight="600">~/.claude/skills</text>
  <text x="750" y="522" text-anchor="middle" fill="#3a3a3a" font-size="12">• openspec-* 流程</text>
  <text x="750" y="542" text-anchor="middle" fill="#3a3a3a" font-size="12">• fireworks-tech-graph</text>
  <text x="750" y="562" text-anchor="middle" fill="#3a3a3a" font-size="12">• python-design-patterns…</text>
  <text x="750" y="588" text-anchor="middle" fill="#6a6a6a" font-size="11" font-style="italic">怎么做→Skill（SOP）</text>
  <rect x="910" y="440" width="240" height="180" rx="12" fill="#f4e4c1" stroke="#4a4a4a" stroke-width="2.5" filter="url(#sh)"/>
  <text x="1030" y="470" text-anchor="middle" fill="#1a1a1a" font-size="15" font-weight="600">Git/OpenSpec · 情景层</text>
  <text x="1030" y="498" text-anchor="middle" fill="#1a1a1a" font-size="14" font-weight="600">git log + tasks.md</text>
  <text x="1030" y="522" text-anchor="middle" fill="#3a3a3a" font-size="12">• commit 时间线</text>
  <text x="1030" y="542" text-anchor="middle" fill="#3a3a3a" font-size="12">• openspec 变更/tasks</text>
  <text x="1030" y="562" text-anchor="middle" fill="#3a3a3a" font-size="12">• 决策锚点可回溯</text>
  <text x="1030" y="588" text-anchor="middle" fill="#6a6a6a" font-size="11" font-style="italic">何时发生→git</text>
</svg>