<svg xmlns="http://www.w3.org/2000/svg" viewBox="0 0 960 700" width="960" height="700">
  <defs>
    <marker id="arrowA" markerWidth="10" markerHeight="7" refX="9" refY="3.5" orient="auto">
      <polygon points="0 0, 10 3.5, 0 7" fill="#7c3aed"/>
    </marker>
    <marker id="arrowB" markerWidth="10" markerHeight="7" refX="9" refY="3.5" orient="auto">
      <polygon points="0 0, 10 3.5, 0 7" fill="#10b981"/>
    </marker>
    <marker id="arrowC" markerWidth="10" markerHeight="7" refX="9" refY="3.5" orient="auto">
      <polygon points="0 0, 10 3.5, 0 7" fill="#2563eb"/>
    </marker>
    <marker id="arrowE" markerWidth="10" markerHeight="7" refX="9" refY="3.5" orient="auto">
      <polygon points="0 0, 10 3.5, 0 7" fill="#f97316"/>
    </marker>
    <marker id="arrowF" markerWidth="10" markerHeight="7" refX="9" refY="3.5" orient="auto">
      <polygon points="0 0, 10 3.5, 0 7" fill="#7c3aed"/>
    </marker>
    <marker id="arrowG" markerWidth="10" markerHeight="7" refX="9" refY="3.5" orient="auto">
      <polygon points="0 0, 10 3.5, 0 7" fill="#ef4444"/>
    </marker>
    <marker id="arrowH" markerWidth="10" markerHeight="7" refX="9" refY="3.5" orient="auto">
      <polygon points="0 0, 10 3.5, 0 7" fill="#6b7280"/>
    </marker>
    <filter id="shadowSoft" x="-20%" y="-20%" width="140%" height="160%">
      <feDropShadow dx="0" dy="3" stdDeviation="6" flood-color="#0f172a" flood-opacity="0.12"/>
    </filter>
    <filter id="shadowGlass" x="-20%" y="-20%" width="140%" height="160%">
      <feDropShadow dx="0" dy="10" stdDeviation="16" flood-color="#020617" flood-opacity="0.28"/>
    </filter>
    <style>
    text { font-family: 'Helvetica Neue', Helvetica, Arial, 'PingFang SC', 'Microsoft YaHei', 'Microsoft JhengHei', 'SimHei', sans-serif; }
    .title { font-size: 30px; font-weight: 700; fill: #111827; }
    .subtitle { font-size: 14px; font-weight: 500; fill: #6b7280; }
    .section { font-size: 13px; font-weight: 700; fill: #2563eb; letter-spacing: 1.4px; }
    .section-sub { font-size: 12px; font-weight: 500; fill: #94a3b8; }
    .node-title { font-size: 18px; font-weight: 700; fill: #111827; }
    .node-sub { font-size: 12px; font-weight: 500; fill: #6b7280; }
    .node-type { font-size: 12px; font-weight: 700; fill: #9ca3af; letter-spacing: 0.08em; }
    .arrow-label { font-size: 12px; font-weight: 600; fill: #6b7280; }
    .legend { font-size: 12px; font-weight: 500; fill: #6b7280; }
    .footnote { font-size: 12px; font-weight: 500; fill: #94a3b8; }
    </style>
  </defs>
  <rect width="960.0" height="700.0" fill="#ffffff"/>
  <text x="480.0" y="56" text-anchor="middle" class="title">4 臂 × 工具 / skills</text>
  <text x="480.0" y="82" text-anchor="middle" class="subtitle">kb+superpowers / kb+openspec 额外注入 skill SOP（精简文本，非运行时）</text>
  <path d="M 300.0,148.0 L 560.0,148.0" fill="none" stroke="#7c3aed" stroke-width="2.4" marker-end="url(#arrowA)"/>
  <path d="M 560.0,148.0 L 300.0,278.0" fill="none" stroke="#7c3aed" stroke-width="2.4" marker-end="url(#arrowA)"/>
  <path d="M 300.0,278.0 L 560.0,278.0" fill="none" stroke="#7c3aed" stroke-width="2.4" marker-end="url(#arrowA)"/>
  <rect x="120.0" y="110.0" width="180.0" height="76.0" rx="10.0" fill="#ffffff" stroke="#d1d5db" stroke-width="1.8" filter="url(#shadowSoft)"/>
  <text x="210.0" y="148.0" text-anchor="middle" class="node-title">no-kb: grep + read</text>
  <rect x="560.0" y="110.0" width="180.0" height="76.0" rx="10.0" fill="#ffffff" stroke="#d1d5db" stroke-width="1.8" filter="url(#shadowSoft)"/>
  <text x="650.0" y="148.0" text-anchor="middle" class="node-title">kb: cmm + read</text>
  <rect x="120.0" y="240.0" width="180.0" height="76.0" rx="10.0" fill="#ffffff" stroke="#d1d5db" stroke-width="1.8" filter="url(#shadowSoft)"/>
  <text x="210.0" y="278.0" text-anchor="middle" class="node-title">kb+superpowers: cmm + read</text>
  <rect x="560.0" y="240.0" width="180.0" height="76.0" rx="10.0" fill="#ffffff" stroke="#d1d5db" stroke-width="1.8" filter="url(#shadowSoft)"/>
  <text x="650.0" y="278.0" text-anchor="middle" class="node-title">kb+openspec: cmm + read</text>
  <rect x="150.0" y="360.0" width="180.0" height="76.0" rx="10.0" fill="#ffffff" stroke="#d1d5db" stroke-width="1.8" filter="url(#shadowSoft)"/>
  <text x="240.0" y="398.0" text-anchor="middle" class="node-title">差异轴: 发现工具 grep ↔ cmm · skills 臂 + 注入 SOP</text>
  <rect x="395.0" y="118.0" width="70" height="20" rx="6" fill="#ffffff" opacity="0.94"/>
  <text x="430.0" y="132.0" text-anchor="middle" class="arrow-label">grep→cmm</text>
  <rect x="409.0" y="183.0" width="42" height="20" rx="6" fill="#ffffff" opacity="0.94"/>
  <text x="430.0" y="197.0" text-anchor="middle" class="arrow-label">+SOP</text>
  <rect x="405.5" y="248.0" width="49" height="20" rx="6" fill="#ffffff" opacity="0.94"/>
  <text x="430.0" y="262.0" text-anchor="middle" class="arrow-label">换 SOP</text>
</svg>